<svg width="13" height="15" viewBox="0 0 13 15" fill="none" xmlns="http://www.w3.org/2000/svg">
<path d="M8.66667 0H4.33333V1.42857H8.66667V0ZM5.77778 9.28571H7.22222V5H5.77778V9.28571ZM11.5772 4.56429L12.6028 3.55C12.2922 3.18571 11.9528 2.84286 11.5844 2.54286L10.5589 3.55714C9.43944 2.67143 8.03111 2.14286 6.5 2.14286C2.91056 2.14286 0 5.02143 0 8.57143C0 12.1214 2.90333 15 6.5 15C10.0967 15 13 12.1214 13 8.57143C13 7.05714 12.4656 5.66429 11.5772 4.56429ZM6.5 13.5714C3.705 13.5714 1.44444 11.3357 1.44444 8.57143C1.44444 5.80714 3.705 3.57143 6.5 3.57143C9.295 3.57143 11.5556 5.80714 11.5556 8.57143C11.5556 11.3357 9.295 13.5714 6.5 13.5714Z" fill="white"/>
</svg>
