<svg width="16" height="14" viewBox="0 0 16 14" fill="none" xmlns="http://www.w3.org/2000/svg">
<path d="M14.1511 0.88375C13.9733 0.3675 13.4756 0 12.8889 0H3.11111C2.52444 0 2.03556 0.3675 1.84889 0.88375L0 6.125V13.125C0 13.6062 0.4 14 0.888889 14H1.77778C2.26667 14 2.66667 13.6062 2.66667 13.125V12.25H13.3333V13.125C13.3333 13.6062 13.7333 14 14.2222 14H15.1111C15.6 14 16 13.6062 16 13.125V6.125L14.1511 0.88375ZM3.11111 9.625C2.37333 9.625 1.77778 9.03875 1.77778 8.3125C1.77778 7.58625 2.37333 7 3.11111 7C3.84889 7 4.44444 7.58625 4.44444 8.3125C4.44444 9.03875 3.84889 9.625 3.11111 9.625ZM12.8889 9.625C12.1511 9.625 11.5556 9.03875 11.5556 8.3125C11.5556 7.58625 12.1511 7 12.8889 7C13.6267 7 14.2222 7.58625 14.2222 8.3125C14.2222 9.03875 13.6267 9.625 12.8889 9.625ZM1.77778 5.25L3.11111 1.3125H12.8889L14.2222 5.25H1.77778Z" fill="white"/>
</svg>
